<?xml version="1.0" encoding="UTF-8"?>
<!-- Created with Inkscape (http://www.inkscape.org/) -->
<svg width="66.146mm" height="66.146mm" version="1.1" viewBox="0 0 66.146 66.146" xmlns="http://www.w3.org/2000/svg">
 <g fill-rule="evenodd" stroke-linecap="round" stroke-linejoin="round" stroke-width="19.954">
  <path d="m34.582-1.2859e-6 31.564 19.506v32.184l-31.564-26.568z" points="66.145834,19.506332 66.145834,51.690358 34.581814,25.121931 34.581814,-1.2859116e-06 " fill="#e9e9ff"/>
  <path d="m1.0869e-6 8.3053v26.486l34.582-9.669v-25.122z" points="1.0868828e-06,34.790972 34.581814,25.121931 34.581814,-1.2859116e-06 1.0868828e-06,8.3052672 " fill="#353564"/>
  <path d="m1.0869e-6 34.791 23.385 31.355 42.761-14.455-31.564-26.568z" points="23.385257,66.145832 66.145834,51.690358 34.581814,25.121931 1.0868828e-06,34.790972 " fill="#afafde"/>
  <path d="m1.0869e-6 8.3053 23.385 23.384 42.761-12.182-31.564-19.506z" points="23.385257,31.688827 66.145834,19.506332 34.581814,-1.2859116e-06 1.0868828e-06,8.3052672 " fill="#4d4d9f"/>
  <path d="m23.385 31.689v34.457l42.761-14.455v-32.184z" points="23.385257,66.145832 66.145834,51.690358 66.145834,19.506332 23.385257,31.688827 " fill="#d7d7ff"/>
  <path d="m1.0869e-6 8.3053 23.385 23.384v34.457l-23.385-31.355z" points="23.385257,31.688827 23.385257,66.145832 1.0868828e-06,34.790972 1.0868828e-06,8.3052672 " fill="#8686bf"/>
 </g>
</svg>
